# xmcd CD database file
#
# Track frame offsets:
#	183
#	18508
#	37135
#	57248
#	69845
#	90013
#	108058
#	119243
#	151058
#	165375
#
# Disc length: 2529 seconds
#
# Revision: 7
# Processed by: cddbd v1.5.2PL0 Copyright (c) Steve Scherf et al.
# Submitted via: CDex 1.51
#
DISCID=7009df0a
DTITLE=Keef Hartley Band - The Battle Of Northwest Six
DYEAR=1969
DGENRE=Blues Rock
TTITLE0=The Dansette Kid - Hartley Jam For Bread
TTITLE1=Don't Give Up
TTITLE2=Me And My Woman
TTITLE3=Hickory
TTITLE4=Don't Be Afraid
TTITLE5=Not Foolish, Not Wise
TTITLE6=Waiting Around
TTITLE7=Tadpole
TTITLE8=Poor Mabel (You're Just Like Me)
TTITLE9=Believe In You
EXTD=YEAR: 1969
EXTT0=
EXTT1=
EXTT2=
EXTT3=
EXTT4=
EXTT5=
EXTT6=
EXTT7=
EXTT8=
EXTT9=
PLAYORDER=
